<?xml version="1.0" standalone="no"?>
<!DOCTYPE svg PUBLIC "-//W3C//DTD SVG 20010904//EN"
 "http://www.w3.org/TR/2001/REC-SVG-20010904/DTD/svg10.dtd">
<svg version="1.0" xmlns="http://www.w3.org/2000/svg"
 width="699.000000pt" height="699.000000pt" viewBox="0 0 699.000000 699.000000"
 preserveAspectRatio="xMidYMid meet">
<metadata>
Created by potrace 1.11, written by Peter Selinger 2001-2013
</metadata>
<g transform="translate(0.000000,699.000000) scale(0.100000,-0.100000)"
fill="#000000" stroke="none">
<path d="M3367 6984 c-1 -1 -50 -5 -108 -8 -58 -4 -117 -9 -130 -11 -13 -2
-51 -6 -84 -10 -66 -7 -324 -53 -335 -60 -4 -2 -21 -7 -38 -10 -103 -18 -420
-124 -557 -186 -27 -12 -52 -23 -55 -24 -21 -5 -186 -90 -280 -143 -764 -430
-1345 -1146 -1606 -1977 -19 -60 -39 -123 -44 -140 -13 -41 -50 -201 -56 -244
-3 -20 -7 -43 -9 -51 -3 -8 -11 -60 -19 -115 -13 -91 -18 -129 -32 -280 -5
-60 -5 -401 1 -465 8 -95 16 -176 20 -205 3 -16 7 -48 10 -70 14 -102 27 -171
55 -287 6 -24 12 -52 15 -63 6 -34 55 -196 82 -275 273 -801 843 -1485 1588
-1908 71 -40 318 -159 400 -192 175 -72 512 -172 650 -193 17 -3 59 -10 95
-16 36 -6 83 -13 105 -16 22 -2 56 -7 75 -10 124 -18 494 -24 645 -11 131 11
221 21 280 31 11 2 40 7 65 11 89 14 203 40 315 70 490 134 928 364 1324 694
194 162 428 408 546 574 11 16 30 40 41 55 99 122 281 441 377 661 77 176 172
468 203 625 2 11 6 31 9 45 3 14 8 41 11 60 4 19 8 44 10 55 4 18 21 130 29
195 30 217 24 679 -10 880 -2 14 -7 45 -10 70 -13 93 -57 295 -91 413 -98 344
-243 659 -442 962 -47 72 -88 132 -91 135 -3 3 -28 34 -55 70 -284 373 -668
703 -1086 933 -63 35 -249 127 -255 127 -3 0 -33 13 -67 29 -146 66 -477 172
-617 196 -19 3 -37 8 -40 10 -4 2 -27 6 -51 10 -25 4 -66 11 -91 15 -26 5 -80
12 -120 16 -41 3 -76 8 -79 9 -15 9 -483 27 -493 19z"/>
</g>
</svg>
